<mxfile host="app.diagrams.net" agent="Mozilla/5.0 (Macintosh; Intel Mac OS X 10_15_7) AppleWebKit/605.1.15 (KHTML, like Gecko) Version/18.0 Safari/605.1.15" version="26.0.16">
  <diagram name="Page-1" id="M3sDEKikOGA1_0nh0tSJ">
    <mxGraphModel dx="2120" dy="1438" grid="1" gridSize="10" guides="1" tooltips="1" connect="1" arrows="1" fold="1" page="1" pageScale="1" pageWidth="827" pageHeight="1169" math="0" shadow="0">
      <root>
        <mxCell id="0" />
        <mxCell id="1" parent="0" />
        <mxCell id="5txy9Nnk0ZM2PmzLh3Y2-77" value="Управление клиентами барбершопа (A0)" style="rounded=1;whiteSpace=wrap;html=1;fillColor=#dae8fc;strokeColor=#6c8ebf;" vertex="1" parent="1">
          <mxGeometry x="400" y="200" width="200" height="100" as="geometry" />
        </mxCell>
        <mxCell id="5txy9Nnk0ZM2PmzLh3Y2-78" value="Запросы клиентов" style="text;html=1;align=left;verticalAlign=top;spacingLeft=4;spacingRight=4;overflow=hidden;rotatable=0;points=[[0,0.5],[1,0.5]];portConstraint=eastwest;" vertex="1" parent="1">
          <mxGeometry x="100" y="230" width="150" height="30" as="geometry" />
        </mxCell>
        <mxCell id="5txy9Nnk0ZM2PmzLh3Y2-79" value="Данные о мастерах" style="text;html=1;align=left;verticalAlign=top;spacingLeft=4;spacingRight=4;overflow=hidden;rotatable=0;points=[[0,0.5],[1,0.5]];portConstraint=eastwest;" vertex="1" parent="1">
          <mxGeometry x="100" y="280" width="150" height="30" as="geometry" />
        </mxCell>
        <mxCell id="5txy9Nnk0ZM2PmzLh3Y2-80" value="Записи клиентов" style="text;html=1;align=left;verticalAlign=top;spacingLeft=4;spacingRight=4;overflow=hidden;rotatable=0;points=[[0,0.5],[1,0.5]];portConstraint=eastwest;" vertex="1" parent="1">
          <mxGeometry x="100" y="330" width="150" height="30" as="geometry" />
        </mxCell>
        <mxCell id="5txy9Nnk0ZM2PmzLh3Y2-81" value="Завершённые услуги" style="text;html=1;align=left;verticalAlign=top;spacingLeft=4;spacingRight=4;overflow=hidden;rotatable=0;points=[[0,0.5],[1,0.5]];portConstraint=eastwest;" vertex="1" parent="1">
          <mxGeometry x="650" y="230" width="150" height="30" as="geometry" />
        </mxCell>
        <mxCell id="5txy9Nnk0ZM2PmzLh3Y2-82" value="Платежи" style="text;html=1;align=left;verticalAlign=top;spacingLeft=4;spacingRight=4;overflow=hidden;rotatable=0;points=[[0,0.5],[1,0.5]];portConstraint=eastwest;" vertex="1" parent="1">
          <mxGeometry x="650" y="280" width="100" height="30" as="geometry" />
        </mxCell>
        <mxCell id="5txy9Nnk0ZM2PmzLh3Y2-83" value="Обновлённая клиентская база" style="text;html=1;align=left;verticalAlign=top;spacingLeft=4;spacingRight=4;overflow=hidden;rotatable=0;points=[[0,0.5],[1,0.5]];portConstraint=eastwest;" vertex="1" parent="1">
          <mxGeometry x="650" y="330" width="200" height="30" as="geometry" />
        </mxCell>
        <mxCell id="5txy9Nnk0ZM2PmzLh3Y2-84" value="Регламенты обслуживания" style="text;html=1;align=left;verticalAlign=top;spacingLeft=4;spacingRight=4;overflow=hidden;rotatable=0;points=[[0,0.5],[1,0.5]];portConstraint=eastwest;" vertex="1" parent="1">
          <mxGeometry x="400" y="100" width="200" height="30" as="geometry" />
        </mxCell>
        <mxCell id="5txy9Nnk0ZM2PmzLh3Y2-85" value="Политика ценообразования" style="text;html=1;align=left;verticalAlign=top;spacingLeft=4;spacingRight=4;overflow=hidden;rotatable=0;points=[[0,0.5],[1,0.5]];portConstraint=eastwest;" vertex="1" parent="1">
          <mxGeometry x="400" y="150" width="200" height="30" as="geometry" />
        </mxCell>
        <mxCell id="5txy9Nnk0ZM2PmzLh3Y2-86" value="Персонал (администраторы, мастера)" style="text;html=1;align=left;verticalAlign=top;spacingLeft=4;spacingRight=4;overflow=hidden;rotatable=0;points=[[0,0.5],[1,0.5]];portConstraint=eastwest;" vertex="1" parent="1">
          <mxGeometry x="400" y="350" width="250" height="30" as="geometry" />
        </mxCell>
        <mxCell id="5txy9Nnk0ZM2PmzLh3Y2-87" value="CRM-система" style="text;html=1;align=left;verticalAlign=top;spacingLeft=4;spacingRight=4;overflow=hidden;rotatable=0;points=[[0,0.5],[1,0.5]];portConstraint=eastwest;" vertex="1" parent="1">
          <mxGeometry x="400" y="400" width="120" height="30" as="geometry" />
        </mxCell>
        <mxCell id="5txy9Nnk0ZM2PmzLh3Y2-88" value="Кассовое оборудование" style="text;html=1;align=left;verticalAlign=top;spacingLeft=4;spacingRight=4;overflow=hidden;rotatable=0;points=[[0,0.5],[1,0.5]];portConstraint=eastwest;" vertex="1" parent="1">
          <mxGeometry x="400" y="450" width="180" height="30" as="geometry" />
        </mxCell>
        <mxCell id="5txy9Nnk0ZM2PmzLh3Y2-89" style="edgeStyle=orthogonalEdgeStyle;rounded=0;html=1;endArrow=classic;entryX=0;entryY=0.5;entryDx=0;entryDy=0;" edge="1" parent="1" source="5txy9Nnk0ZM2PmzLh3Y2-78" target="5txy9Nnk0ZM2PmzLh3Y2-77">
          <mxGeometry relative="1" as="geometry" />
        </mxCell>
        <mxCell id="5txy9Nnk0ZM2PmzLh3Y2-90" style="edgeStyle=orthogonalEdgeStyle;rounded=0;html=1;endArrow=classic;entryX=0;entryY=0.5;entryDx=0;entryDy=0;" edge="1" parent="1" source="5txy9Nnk0ZM2PmzLh3Y2-79" target="5txy9Nnk0ZM2PmzLh3Y2-77">
          <mxGeometry relative="1" as="geometry" />
        </mxCell>
        <mxCell id="5txy9Nnk0ZM2PmzLh3Y2-91" style="edgeStyle=orthogonalEdgeStyle;rounded=0;html=1;endArrow=classic;entryX=0;entryY=0.5;entryDx=0;entryDy=0;" edge="1" parent="1" source="5txy9Nnk0ZM2PmzLh3Y2-80" target="5txy9Nnk0ZM2PmzLh3Y2-77">
          <mxGeometry relative="1" as="geometry" />
        </mxCell>
        <mxCell id="5txy9Nnk0ZM2PmzLh3Y2-92" style="edgeStyle=orthogonalEdgeStyle;rounded=0;html=1;endArrow=classic;entryX=1;entryY=0.5;entryDx=0;entryDy=0;" edge="1" parent="1" source="5txy9Nnk0ZM2PmzLh3Y2-77" target="5txy9Nnk0ZM2PmzLh3Y2-81">
          <mxGeometry relative="1" as="geometry" />
        </mxCell>
        <mxCell id="5txy9Nnk0ZM2PmzLh3Y2-93" style="edgeStyle=orthogonalEdgeStyle;rounded=0;html=1;endArrow=classic;entryX=1;entryY=0.5;entryDx=0;entryDy=0;" edge="1" parent="1" source="5txy9Nnk0ZM2PmzLh3Y2-77" target="5txy9Nnk0ZM2PmzLh3Y2-82">
          <mxGeometry relative="1" as="geometry" />
        </mxCell>
        <mxCell id="5txy9Nnk0ZM2PmzLh3Y2-94" style="edgeStyle=orthogonalEdgeStyle;rounded=0;html=1;endArrow=classic;entryX=1;entryY=0.5;entryDx=0;entryDy=0;" edge="1" parent="1" source="5txy9Nnk0ZM2PmzLh3Y2-77" target="5txy9Nnk0ZM2PmzLh3Y2-83">
          <mxGeometry relative="1" as="geometry" />
        </mxCell>
        <mxCell id="5txy9Nnk0ZM2PmzLh3Y2-95" style="edgeStyle=orthogonalEdgeStyle;rounded=0;html=1;endArrow=classic;entryX=0.5;entryY=0;entryDx=0;entryDy=0;" edge="1" parent="1" source="5txy9Nnk0ZM2PmzLh3Y2-84" target="5txy9Nnk0ZM2PmzLh3Y2-77">
          <mxGeometry relative="1" as="geometry" />
        </mxCell>
        <mxCell id="5txy9Nnk0ZM2PmzLh3Y2-96" style="edgeStyle=orthogonalEdgeStyle;rounded=0;html=1;endArrow=classic;entryX=0.5;entryY=0;entryDx=0;entryDy=0;" edge="1" parent="1" source="5txy9Nnk0ZM2PmzLh3Y2-85" target="5txy9Nnk0ZM2PmzLh3Y2-77">
          <mxGeometry relative="1" as="geometry" />
        </mxCell>
        <mxCell id="5txy9Nnk0ZM2PmzLh3Y2-97" style="edgeStyle=orthogonalEdgeStyle;rounded=0;html=1;endArrow=classic;entryX=0.5;entryY=1;entryDx=0;entryDy=0;" edge="1" parent="1" source="5txy9Nnk0ZM2PmzLh3Y2-86" target="5txy9Nnk0ZM2PmzLh3Y2-77">
          <mxGeometry relative="1" as="geometry" />
        </mxCell>
        <mxCell id="5txy9Nnk0ZM2PmzLh3Y2-98" style="edgeStyle=orthogonalEdgeStyle;rounded=0;html=1;endArrow=classic;entryX=0.5;entryY=1;entryDx=0;entryDy=0;" edge="1" parent="1" source="5txy9Nnk0ZM2PmzLh3Y2-87" target="5txy9Nnk0ZM2PmzLh3Y2-77">
          <mxGeometry relative="1" as="geometry" />
        </mxCell>
        <mxCell id="5txy9Nnk0ZM2PmzLh3Y2-99" style="edgeStyle=orthogonalEdgeStyle;rounded=0;html=1;endArrow=classic;entryX=0.5;entryY=1;entryDx=0;entryDy=0;" edge="1" parent="1" source="5txy9Nnk0ZM2PmzLh3Y2-88" target="5txy9Nnk0ZM2PmzLh3Y2-77">
          <mxGeometry relative="1" as="geometry">
            <Array as="points">
              <mxPoint x="590" y="465" />
              <mxPoint x="590" y="380" />
              <mxPoint x="500" y="380" />
            </Array>
          </mxGeometry>
        </mxCell>
      </root>
    </mxGraphModel>
  </diagram>
</mxfile>
